<?xml version="1.0" encoding="UTF-8"?> <svg xmlns="http://www.w3.org/2000/svg" width="32" height="32" viewBox="0 0 32 32" fill="none"> <path d="M31.9995 16.5565C31.9995 7.94064 24.8325 0.960449 15.9995 0.960449C7.16051 0.960449 -0.000488281 7.94064 -0.000488281 16.5565C-0.000488281 24.3389 5.84851 30.7917 13.4995 31.9604V21.0657H9.43651V16.5574H13.4995V13.1195C13.4995 9.21171 15.8845 7.05362 19.5405 7.05362C21.2915 7.05362 23.1245 7.35774 23.1245 7.35774V11.1953H21.1035C19.1195 11.1953 18.4995 12.3991 18.4995 13.6322V16.5565H22.9365L22.2235 21.0647H18.4995V31.9595C26.1445 30.7907 31.9995 24.3379 31.9995 16.5555V16.5565Z" fill="white"></path> </svg> 