<?xml version="1.0" encoding="UTF-8"?> <svg xmlns="http://www.w3.org/2000/svg" width="211" height="21" viewBox="0 0 211 21" fill="none"> <path d="M36.335 13.3659C36.3695 12.9754 37.1511 13.5324 37.2392 13.6912C37.3207 13.8381 37.4076 13.9993 37.2332 14.0996C37.0612 14.1987 37.0231 14.1778 37.0231 14.1778C36.9731 14.0912 36.5267 14.1241 36.4487 14.0506C36.3052 13.9139 36.3124 13.6059 36.335 13.3659ZM37.1404 15.0798C37.1404 15.0798 37.2023 14.8852 37.4344 14.8924C37.6707 14.8996 37.532 15.1992 37.5505 15.2446C37.5505 15.2446 37.5183 15.4548 37.4296 15.5616C37.3511 15.6559 37.0999 15.7157 37.0148 15.5998C36.9195 15.4739 37.1225 15.2267 37.1404 15.0798ZM33.0737 13.3157C33.0297 13.3963 32.3904 14.5915 32.5773 15.4201C32.6249 15.6333 32.7136 16.4965 33.0017 16.7485C33.1553 16.8977 33.6225 17.2099 33.7826 17.3049C33.9291 17.3932 34.1862 17.466 34.3874 17.558C34.7445 17.7144 35.3499 17.9019 35.9148 17.7341C36.1255 17.672 36.8951 17.3866 36.9796 17.3425C37.1308 17.2631 37.7064 16.6464 37.8683 16.2022C38.0392 15.7276 38.404 15.2321 38.2225 14.4942C38.1844 14.339 37.6987 13.299 37.3344 12.9623C37.21 12.8423 37.1124 12.671 37.0159 12.6053C36.8058 12.4668 36.5671 12.4668 36.4124 12.2495C36.307 12.1062 35.7731 12.0513 35.4886 12.1396C35.1231 12.2584 34.763 12.1701 34.4606 12.2829C34.2422 12.3671 34.0059 12.5175 33.819 12.6399C33.5945 12.7874 33.2195 13.0638 33.0737 13.3157ZM22.5202 0.36741C22.5202 -0.194366 23.0792 -0.00929601 23.069 0.247413C23.175 0.603822 22.5339 0.672476 22.5202 0.36741ZM32.2207 12.3199C32.6779 12.4435 32.2791 13.136 32.0094 12.8548C31.6303 12.7026 31.9315 12.1593 32.2207 12.3199ZM14.0721 19.2672C14.6209 18.7144 15.2507 18.1675 15.8102 17.7001C16.0471 17.5019 16.2161 17.2828 16.4161 17.1287C16.5393 17.032 16.7155 17.0135 16.8423 16.9168C16.9447 16.8338 17.4375 16.0876 17.7298 15.8464C18.4423 15.6643 18.9232 15.2237 19.6119 14.8136C19.8048 14.6996 20.0316 14.6781 20.1792 14.6005C20.356 14.5073 20.5756 14.1784 20.75 14.3861C20.3339 14.4667 20.4113 14.8166 20.2149 15.0995C20.1113 15.2524 19.9048 15.2625 19.7548 15.3843C19.4697 15.613 19.2851 15.9228 19.0792 16.1676C18.3482 16.6494 17.6899 17.281 17.0191 17.8057C16.7869 17.989 16.5762 18.2195 16.3435 18.3771C16.2191 18.4601 15.787 18.7842 15.6709 18.8762C15.5137 18.995 15.2798 19.0708 15.1012 19.1967C14.9161 19.3263 14.3792 19.6702 14.2834 19.7299C14.1114 19.8373 14.0036 20.054 13.8221 20.1567C13.6894 20.2325 13.3501 20.7907 13.0048 20.5149C12.1691 20.0296 13.6316 19.7054 14.0721 19.2672ZM29.4511 1.95184C29.7981 2.02289 30.2118 2.39601 29.9618 2.76914C29.897 2.86107 29.7178 2.89033 29.5285 2.70705C29.2529 2.44556 28.8982 3.07659 28.6684 2.7769C28.6494 2.70705 28.6297 2.63839 28.6321 2.5578C28.6517 2.17094 28.9553 1.85274 29.4511 1.95184ZM0.325778 8.75524C0.487681 8.52062 0.572205 8.13735 0.784108 7.97258C0.922202 7.86512 1.28053 7.73258 1.56743 7.65079C1.94065 7.54811 2.46743 7.49916 2.95314 7.43946C3.44718 7.37558 3.89837 7.24483 4.26563 7.15349C4.73884 7.0335 5.20014 6.97977 5.19121 6.54575C5.18407 6.19233 4.83645 6.13979 4.65848 5.90577C4.57872 5.7995 4.53765 5.61563 4.44598 5.48011C4.20848 5.13027 3.80551 4.4867 3.94718 3.94701C4.01682 3.68672 4.59241 2.99779 4.87276 2.94764C5.3924 2.85689 6.03883 3.30345 6.53882 3.44673C6.94179 3.56314 7.34417 3.61329 7.71381 3.69747C8.7763 3.93985 9.87391 4.11596 11.1608 4.19537C12.6673 4.28969 14.0524 4.50998 15.0322 3.80373C14.4507 3.49807 13.6066 3.5112 12.7197 3.4121C12.1453 3.34942 10.7156 3.26166 10.6983 2.73332C10.6799 2.31243 11.556 2.01035 11.834 1.84498C12.0108 1.73633 12.1185 1.56857 12.2596 1.48798C12.4917 1.35604 12.7376 1.35365 13.0394 1.23843C13.287 1.14649 13.4834 0.973961 13.7501 0.881426C14.1382 0.748295 14.7042 0.706505 15.2798 0.563226C16.303 0.305322 17.4423 0.227712 18.6899 0.311292C18.9941 0.333381 19.6893 0.383529 19.8613 0.525615C20.2232 0.831278 19.856 1.21097 19.9661 1.63006C20.081 2.06169 21.053 2.22229 21.7077 2.52078C21.9155 2.61869 22.0065 2.7363 22.1702 2.84257C22.597 3.12137 22.8934 3.26703 23.2678 3.65986C23.7143 4.12373 23.875 4.46879 24.0875 5.01385C24.169 5.21564 24.272 5.44071 24.3 5.65622C24.4315 6.64485 23.8958 7.48244 23.4839 7.97198C23.0863 8.44421 22.7054 8.43047 21.9935 8.57734C21.5994 8.65674 21.2441 8.74868 20.8917 8.79047C18.9524 9.02389 17.1935 8.83106 15.4554 8.8639C15.7054 8.98389 15.8542 9.28836 16.131 9.43284C16.603 9.67999 17.4423 9.6985 18.1572 9.75342C18.9095 9.80954 19.6685 9.8782 20.2857 9.89551C19.206 10.8131 16.9786 10.8095 15.0322 10.714C14.3078 10.68 13.6465 10.6591 13.0048 10.5731C12.3185 10.4788 11.8203 10.2268 11.2644 10.1104C10.9584 10.0442 10.6983 10.0567 10.4483 9.96834C10.1668 9.86685 9.92272 9.66626 9.66439 9.57671C9.41796 9.48716 9.19177 9.46149 8.99059 9.36239C8.79535 9.26329 8.65547 9.10031 8.45785 9.00419C8.31976 8.93912 8.16262 8.93315 8.03226 8.86449C7.5906 8.61972 7.04536 7.96183 6.46977 7.97258C6.18049 7.97855 5.95133 8.21257 5.69002 8.29317C5.17812 8.44958 4.65967 8.43883 4.12634 8.65017C3.60194 8.85673 3.09599 8.89375 2.56385 9.00479C1.71267 9.18329 0.930535 9.76954 0.0412566 9.61134C-0.108742 9.21971 0.182922 8.96061 0.325778 8.75524ZM19.4655 16.3879C19.5447 16.4965 19.6851 16.5264 19.8214 16.5777C19.8893 16.5158 19.973 16.4738 20.0631 16.4565C20.4339 16.4028 20.9208 16.7425 20.9143 17.0631C20.9095 17.3496 20.5744 17.4523 20.4167 17.7031C20.2988 17.8941 20.3667 18.0433 20.1691 18.1681C20.0318 18.1603 19.8988 18.1177 19.7824 18.0443C19.666 17.9709 19.5701 17.8691 19.5036 17.7484C19.397 17.7114 19.2851 17.669 19.1679 17.6643C18.9447 17.6547 18.8518 17.7878 18.6435 17.6768C18.3613 17.0876 18.8024 16.4876 19.4655 16.3879ZM118.368 11.6346C118.194 12.3235 118.202 12.7026 117.64 13.0524C117.121 13.3683 116.97 13.5712 116.383 13.6679C116.012 13.7306 115.247 13.9091 114.869 13.9467C113.097 14.1217 112.343 13.7462 111.346 13.6972C110.072 13.6363 109.549 13.0745 109.079 11.4913C108.769 10.4382 108.93 9.7982 108.805 8.74271C108.702 7.9093 108.655 6.78515 108.778 5.92666C108.841 5.49085 108.801 5.02519 109.079 4.40014C109.27 3.97686 109.5 3.62702 109.954 3.46942C111.109 3.06704 111.469 3.02167 112.7 3.08256L113.518 3.07778C114.044 3.06704 114.646 3.11957 115.167 3.15838C115.945 3.21927 116.534 3.35897 117.269 3.64434C117.902 3.88791 117.733 4.31954 118.01 4.96549C118.315 5.67234 118.303 6.57321 118.326 7.34513C118.357 8.75524 118.719 10.2328 118.368 11.6346ZM122.787 6.22158C122.29 5.43712 121.755 4.71058 120.982 4.13805C120.744 3.96433 119.66 3.30464 119.45 3.20435C119.081 3.03182 117.366 2.3393 116.824 2.21691C115.788 1.98229 111.677 2.10408 111.076 2.16199C110.093 2.2599 108.144 3.05271 107.796 3.20435C107.584 3.29629 106.439 3.9703 106.209 4.13925C106.022 4.27357 105.127 5.08012 105.006 5.23534C104.823 5.46279 104.044 6.63709 103.967 6.88067C103.648 7.86691 103.705 9.40418 103.967 10.228C104.103 10.6638 104.886 11.779 105.006 11.9307C105.216 12.1898 105.724 12.5778 106.099 12.8626C106.597 13.2381 107.263 13.7229 107.687 13.905C107.981 14.0273 109.294 14.5939 109.658 14.7294C110.817 15.1598 113.222 14.93 113.309 14.9348C113.528 14.9509 115.385 15.0458 116.003 15.0022C117.206 14.9216 119.249 14.0124 119.503 13.905C119.733 13.8082 120.901 13.0489 121.143 12.8626C121.319 12.7283 122.124 12.0125 122.24 11.8752C122.414 11.6698 123.201 10.3474 123.278 10.1182C123.748 8.69256 123.31 7.05439 122.787 6.22158ZM182.43 10.474C182.259 10.5427 181.93 10.5349 181.741 10.5349C180.5 10.5349 179.257 10.52 178.017 10.5116C177.682 10.5116 176.913 10.5361 177.147 10.071C177.297 9.76775 177.333 9.45791 177.474 9.14508C177.687 8.67524 177.926 8.27645 178.056 7.77616C178.155 7.39707 178.328 7.01021 178.483 6.65202C178.615 6.34755 178.709 6.098 178.77 5.77383C178.85 5.34817 179.097 4.91356 179.277 4.52133C179.402 4.25208 179.784 3.07181 180.05 3.60493C180.141 3.78224 180.319 4.27059 180.409 4.45745C180.556 4.75475 180.653 5.09086 180.778 5.40429C181.071 6.16666 181.42 6.90932 181.689 7.68482C181.794 7.9869 181.83 8.32839 181.959 8.62689C182.073 8.88718 182.131 9.15643 182.23 9.41851C182.314 9.6191 182.386 9.87342 182.414 10.0889C182.439 10.2424 182.58 10.4161 182.43 10.474ZM189.913 14.5073C189.939 13.7694 189.554 14.3103 189.194 13.7378C189.069 13.536 189.056 13.1993 188.925 12.9145C188.74 12.5426 188.222 11.465 188.156 11.2704C188.003 10.8119 187.63 10.4877 187.444 10.0639C187.289 9.70029 186.741 8.46152 186.624 8.19705C186.466 7.8484 185.733 6.29859 185.581 5.83831C185.346 5.09086 184.961 4.65147 184.764 4.08134C184.692 3.86582 184.602 3.56494 184.518 3.35718C184.193 2.53869 183.658 2.39064 182.796 2.43601C181.171 2.52317 178.124 2.28915 176.829 2.32855C176.632 2.33094 175.841 2.36915 176.065 2.91719C176.14 3.64493 178.817 2.8354 178.689 3.36852C178.518 4.11358 178.042 5.86517 177.217 7.25618C177.217 7.25618 176.519 8.46749 176.389 9.00061C176.389 9.00061 175.787 10.2328 175.439 10.9337C175.281 11.1725 175.198 11.4435 175.093 11.7408C175.023 11.938 174.968 12.1404 174.93 12.3462C174.893 12.5581 174.714 12.6166 174.621 12.8124C174.47 13.1426 174.26 13.379 174.051 13.77C173.955 13.9438 173.727 14.0279 173.548 14.1223C172.84 14.176 172.255 14.3276 172.235 14.5628C172.216 15.2273 173.188 14.9801 173.67 14.9545C174.586 14.8948 176.064 15.1282 176.064 14.6196C176.064 14.5133 176.117 14.327 175.973 14.2548C175.815 14.1754 175.718 14.1897 175.405 14.1706C175.322 14.1635 175.081 14.1497 175.156 13.9282C175.231 13.7139 175.298 13.5271 175.372 13.3324C175.524 12.9521 175.79 12.5008 175.936 12.1223C176.089 11.7367 176.418 11.4358 176.747 11.4226C177.767 11.3946 178.317 11.4143 179.455 11.4352C180.464 11.4525 181.544 11.2489 182.371 11.3629C182.734 11.4155 182.917 11.4513 183.116 11.9474C183.295 12.3951 183.506 12.9199 183.681 13.4363C183.736 13.5951 183.736 13.5981 183.786 13.7521C183.993 14.2769 182.236 13.6924 182.521 14.6196C182.7 15.1151 183.325 14.7825 183.777 14.7664C185.4 14.7002 187.589 14.6488 189.303 14.7294C189.891 14.7545 189.913 14.7616 189.913 14.5073ZM134.122 13.5605C133.83 13.5826 133.499 13.6023 133.322 13.6023C132.544 13.6023 131.769 13.6733 131.003 13.6405C130.405 13.6076 127.643 13.7873 127.434 13.6208C126.993 13.1336 127.71 12.3671 127.922 11.9277C128.231 11.2782 128.393 10.6441 128.649 9.96297C128.923 9.23635 129.187 8.50636 129.443 7.77318C129.749 6.89141 130.172 5.99054 130.527 5.1428C130.679 4.78341 130.843 4.29506 130.955 3.95239C131.046 3.66105 131.426 3.2342 131.643 4.11119C131.979 5.48608 132.381 6.88485 132.863 8.21794C133.193 9.10747 134.007 11.7987 134.157 12.2369C134.225 12.4447 134.373 12.7336 134.466 12.9695C134.529 13.1259 134.735 13.5139 134.122 13.5605ZM142.764 14.0351C142.32 13.8661 141.299 13.985 140.759 13.825C140.347 13.7014 140.538 13.7151 140.225 13.1927C140.056 12.908 139.574 11.8029 139.405 11.4346C139.3 11.2107 138.585 9.96178 138.417 9.57134C138.237 9.13075 137.834 7.94929 137.763 7.75945C137.606 7.31528 136.706 5.71771 136.518 5.37503C136.432 5.21982 135.906 4.14402 135.67 3.20614C135.496 2.50049 134.698 2.399 134.517 2.40258C132.291 2.49093 129.866 2.41631 127.828 2.38049C127.643 2.38049 127.078 2.38407 127.065 2.8551C127.022 4.06641 128.253 3.38464 128.781 3.4533C129.196 3.47897 129.944 3.41389 130.038 3.6109C130.128 3.80911 129.727 4.79654 129.487 5.1828C129.244 5.56966 128.809 6.23471 128.595 6.90634C128.385 7.57318 127.343 9.87044 127.209 10.3785C127.072 10.8889 126.537 12.2137 126.51 12.3456L126.056 13.7527C125.784 14.0417 125.068 13.902 124.694 13.967C124.433 14.0112 123.876 13.8632 123.578 13.9461C123.078 14.0858 122.893 14.8196 122.729 15.2966C122.54 15.8315 122.365 16.158 122.433 16.7765C122.421 16.9795 122.797 17.1508 123.028 17.1508C123.301 17.1508 124.143 17.1311 124.109 16.8732C124.101 16.6494 124.022 16.2541 124.079 15.8679C124.472 14.5652 124.341 14.9455 125.038 15.0016C125.544 15.0398 127.105 14.9587 127.805 14.9724C130.306 15.0225 132.346 14.8172 135.132 14.779C136.514 14.7605 138.463 14.7055 139.819 14.7975C140.902 14.8733 141.494 14.5396 141.557 15.0578C141.694 15.2876 142.135 16.5419 142.135 16.7753C142.114 16.9932 142.685 17.1801 143.133 17.1496C143.817 17.1019 143.795 16.8511 143.762 16.6541C143.556 15.7664 143.152 14.244 142.764 14.0351ZM171.009 10.6943C170.328 10.5427 170.467 11.5456 169.396 12.2578C169.187 12.3945 168.32 12.9563 168.031 13.0823C167.728 13.2154 166.482 13.6363 166.197 13.7467C165.705 13.9473 164.893 13.9963 164.226 14.0942C163.581 14.1885 161.779 14.1933 161.359 14.0942C160.841 13.9766 159.949 13.9814 159.62 13.8482C159.155 13.6673 158.46 13.1462 158.388 12.5157C158.202 11.0035 158.36 9.86566 158.36 8.59107C158.36 7.25618 158.002 5.64548 158.443 4.64431C158.695 4.05925 159.171 3.29151 159.764 3.04196C161.499 2.2993 166.037 3.42345 166.276 2.92913C166.63 2.02886 164.672 2.16199 163.704 2.16199C162.627 2.16199 161.392 1.95901 160.476 2.05214C159.36 2.16497 158.545 2.26408 157.501 2.65869C157.098 2.81033 156.618 3.04793 156.264 3.20435C156.048 3.29987 154.633 4.26641 154.129 4.73983C153.536 5.3028 152.701 6.20307 152.432 6.99051C152.139 7.86273 152.161 9.59522 152.432 10.2286C152.772 11.0131 154.661 13.2954 156.096 13.905C156.327 14.0052 158.239 14.7563 158.739 14.8482C160.53 15.1652 164.655 15.3951 165.705 15.0231C165.973 14.9264 167.515 14.4566 168.011 14.0948C168.512 13.7354 168.993 13.5139 169.336 13.4429C170.074 13.29 169.944 13.5748 170.652 13.6853C171.279 13.7939 171.593 11.9772 171.624 11.0316C171.635 10.6901 171.239 10.7283 171.009 10.6943ZM145.608 7.21857C144.148 7.70691 144.428 9.81432 145.743 10.0507C148.256 10.5092 148.238 6.34038 145.608 7.21857ZM96.3452 9.24657C96.253 9.57194 95.6303 10.4627 94.6155 10.4967C94.2422 10.5092 93.6018 10.5641 93.2143 10.5349C92.5631 10.4895 92.6458 10.4859 91.9494 10.4895C91.2274 10.4919 91.0441 10.0089 91.053 8.72659C91.053 8.21675 91.0464 6.79888 91.0441 6.29919C91.0262 4.507 90.6578 3.46106 92.0923 3.46106C92.5923 3.46106 93.2083 3.41688 93.7202 3.4718C94.2512 3.52553 95.6905 3.29211 96.1166 3.88911C96.4851 4.39775 96.8559 5.2419 96.8559 6.72724C96.8583 8.02989 96.572 8.47704 96.3452 9.24657ZM100.074 3.7512C99.344 3.21689 99.1625 3.14942 98.2083 2.87421C97.9017 2.78466 97.5553 2.6366 97.2268 2.54646C95.5422 2.09274 92.772 2.33094 90.8828 2.43541C88.3983 2.57392 85.8757 2.26766 83.9328 2.32795C83.6209 2.33392 82.5031 2.15303 82.3703 2.83839C82.2203 4.41029 85.228 3.10883 85.6643 3.6509C85.7887 3.80135 85.7757 4.01209 85.7917 4.40969C85.8399 5.49981 85.7364 7.10573 85.7364 8.74629C85.7364 10.3283 85.8804 11.988 85.7364 13.1921C85.7096 13.422 85.578 13.8787 85.5197 13.9581C84.934 14.7228 83.137 13.6035 83.059 14.5611C83.137 15.4112 84.5155 14.9449 85.2864 14.9246C87.6001 14.8607 90.2857 14.9073 92.1887 15.0088C92.5976 15.0321 93.5893 15.1419 93.5089 14.5097C93.3893 13.7551 91.4988 14.8488 91.0459 13.85C90.828 13.373 90.828 12.2656 91.1024 11.8167C91.4488 11.2477 93.0744 11.4214 93.8899 11.434C94.4434 11.4447 95.1911 11.5402 95.75 11.5438C98.4916 11.5587 99.7404 10.514 99.9636 10.394C100.132 10.2997 101.026 9.5791 101.17 9.40537C101.303 9.24 101.846 8.34809 101.931 8.14272C102.191 7.53199 102.221 6.71888 102.042 6.05681C101.774 5.06161 100.78 4.27417 100.074 3.7512ZM167.922 3.96075C168.401 4.14522 168.848 4.37685 169.226 4.73863C169.847 5.11295 169.941 6.84902 171.173 6.28606C171.447 6.19173 171.167 3.6915 170.597 3.58882C169.894 3.47001 169.481 3.77209 168.777 3.47001C168.542 3.36852 168.21 3.08077 167.944 2.94167C167.443 2.68257 166.983 3.58882 167.922 3.96075ZM61.4884 2.07662C61.0407 1.97155 60.1407 2.38109 59.4515 2.38109C55.4533 2.3775 49.3486 2.62466 45.9403 2.32855C45.6819 2.30646 45.3403 2.25034 45.2099 2.6957C44.9718 4.03298 47.2849 2.75958 47.7504 3.41628C47.8748 3.59837 47.8861 3.92134 47.9069 4.24671C48.0224 5.67652 47.826 7.05678 47.8557 8.52599C47.8861 10.0525 47.9825 11.3432 47.9069 12.8077C47.8885 13.1933 47.776 13.7861 47.6897 13.905C47.2063 14.5963 45.2254 13.7312 45.2254 14.5628C45.0766 15.2428 46.2391 14.9007 46.8421 14.8787C48.9712 14.7903 51.6986 14.8799 53.8176 14.924C54.4396 14.9348 55.6973 15.2201 55.614 14.5437C55.6973 13.6888 53.6616 14.7431 53.164 13.905C52.9039 13.4769 52.998 12.471 52.998 11.5976C52.998 8.74808 52.7902 5.83174 53.0664 3.70583C53.2087 3.25808 55.0932 3.24972 56.2426 3.24972C57.2533 3.24972 58.8979 3.12734 59.6747 3.26226C60.0872 3.32972 59.9991 3.53867 60.0491 3.90582C60.1271 4.47237 60.1431 5.43533 61.2824 5.34578C61.7604 5.32369 61.4997 4.17984 61.6407 3.80791C61.9824 2.89988 61.9949 2.20378 61.4884 2.07662ZM201.346 13.5605C201.054 13.5826 200.728 13.6023 200.543 13.6023C199.773 13.6023 198.994 13.6733 198.227 13.6405C197.635 13.6076 194.867 13.7873 194.659 13.6208C194.216 13.1336 194.94 12.3671 195.143 11.9277C195.453 11.2782 195.617 10.6441 195.874 9.96297C196.157 9.21314 196.401 8.52659 196.668 7.77318C196.974 6.89141 197.395 5.99054 197.754 5.1428C197.903 4.78341 198.067 4.29506 198.175 3.95239C198.266 3.66105 198.651 3.2342 198.868 4.11119C199.205 5.48608 199.603 6.88485 200.085 8.21794C200.409 9.10747 201.229 11.7987 201.38 12.2369C201.447 12.4447 201.597 12.7336 201.688 12.9695C201.752 13.1259 201.957 13.5139 201.346 13.5605ZM210.984 16.6541C210.778 15.767 210.377 14.244 209.987 14.0351C209.543 13.8661 208.519 13.985 207.982 13.825C207.571 13.7014 207.764 13.7151 207.446 13.1927C207.279 12.908 206.8 11.8029 206.632 11.4346C206.523 11.2107 205.807 9.96178 205.646 9.57134C205.464 9.13075 205.057 7.94929 204.988 7.75945C204.829 7.31528 203.933 5.71771 203.747 5.37503C203.658 5.21982 203.13 4.14402 202.897 3.20614C202.722 2.50049 201.952 2.2199 201.772 2.22527C199.543 2.31184 197.094 2.41631 195.051 2.38049C194.868 2.38049 194.3 2.38407 194.289 2.8551C194.249 4.06641 195.474 3.38464 196.006 3.4533C196.424 3.47897 197.172 3.41389 197.265 3.6109C197.354 3.80911 196.953 4.79654 196.712 5.1828C196.471 5.56966 196.03 6.23471 195.823 6.90634C195.61 7.57318 194.575 9.87044 194.432 10.3785C194.297 10.8889 193.76 12.2137 193.735 12.3456L193.278 13.7527C193.007 14.0417 192.293 13.902 191.919 13.967C191.656 14.0112 191.102 13.8632 190.803 13.9461C190.302 14.0858 190.119 14.8196 189.953 15.2966C189.765 15.8315 189.59 16.1568 189.659 16.7765C189.643 16.9795 190.022 17.1508 190.252 17.1508C190.526 17.1508 191.371 17.1311 191.332 16.8732C191.325 16.6494 191.249 16.2541 191.303 15.8679C191.7 14.5652 191.569 14.9455 192.261 15.0016C192.769 15.0398 194.332 14.9587 195.032 14.9724C197.531 15.0225 199.571 14.8172 202.359 14.779C203.74 14.7605 205.69 14.7055 207.047 14.7975C208.128 14.8733 208.72 14.5396 208.782 15.0578C208.918 15.2876 209.358 16.5419 209.358 16.7753C209.338 16.9932 209.909 17.1801 210.36 17.1496C211.045 17.1019 211.022 16.8511 210.984 16.6541ZM76.7382 11.6346C76.5656 12.3235 76.5811 12.7026 76.0091 13.0524C75.493 13.3683 75.3418 13.5712 74.7573 13.6679C74.3829 13.7306 73.618 13.9091 73.2436 13.9467C71.4692 14.1217 70.7139 13.7462 69.721 13.6972C68.4431 13.6363 67.9222 13.0745 67.4514 11.4913C67.1389 10.4382 67.305 9.7982 67.1752 8.74271C67.0705 7.9093 67.0252 6.78515 67.1538 5.92666C67.2133 5.49085 67.1693 5.02519 67.4514 4.40014C67.6437 3.97686 67.8722 3.62702 68.327 3.46942C69.4847 3.06704 69.8359 3.02167 71.074 3.08256L71.8901 3.07778C72.4156 3.06704 73.0168 3.11957 73.5412 3.15838C74.318 3.21927 74.9049 3.35897 75.6388 3.64434C76.2763 3.88791 76.1049 4.31954 76.3841 4.96549C76.6876 5.67234 76.6733 6.57321 76.6972 7.34513C76.7281 8.75524 77.0936 10.2328 76.7382 11.6346ZM79.1168 4.13925C78.8811 3.96433 77.7983 3.30464 77.5888 3.20435C77.2192 3.03182 75.5019 2.3393 74.9579 2.21691C73.9252 1.98229 69.8157 2.10408 69.2133 2.16199C68.2288 2.2599 66.2818 3.05271 65.933 3.20435C65.7223 3.29629 64.5758 3.9703 64.349 4.13925C64.161 4.27357 63.2657 5.08012 63.1425 5.23534C62.9598 5.46279 62.1812 6.63709 62.1032 6.88067C61.7848 7.86691 61.8419 9.40418 62.1032 10.228C62.2395 10.6638 63.0229 11.779 63.1425 11.9307C63.352 12.1898 63.861 12.5778 64.2354 12.8626C64.733 13.2381 65.3979 13.7229 65.8246 13.905C66.1175 14.0273 67.43 14.5939 67.7931 14.7294C68.9532 15.1598 71.3597 14.93 71.4454 14.9348C71.6686 14.9509 73.521 15.0458 74.1418 15.0022C75.3424 14.9216 77.3864 14.0124 77.643 13.905C77.871 13.8082 79.0406 13.0489 79.2799 12.8626C79.4543 12.7283 80.2567 12.0125 80.3799 11.8752C80.5507 11.6698 81.34 10.3474 81.4168 10.1182C81.89 8.69315 81.4447 7.05499 80.9215 6.22277C80.4317 5.43712 79.893 4.71058 79.1168 4.13925ZM81.0037 2.28855C80.2442 2.49511 80.9066 3.64672 81.3566 3.1745C81.9876 2.92555 81.4846 2.02408 81.0037 2.28855Z" fill="#BFE142"></path> </svg> 