<?xml version="1.0" encoding="UTF-8"?> <svg xmlns="http://www.w3.org/2000/svg" width="31" height="32" viewBox="0 0 31 32" fill="none"> <path d="M15.4953 11.0313C12.6492 11.0313 10.3266 13.354 10.3266 16.2002C10.3266 19.0464 12.6492 21.3691 15.4953 21.3691C18.3415 21.3691 20.6641 19.0464 20.6641 16.2002C20.6641 13.354 18.3415 11.0313 15.4953 11.0313ZM30.9978 16.2002C30.9978 14.0597 31.0172 11.9387 30.897 9.80212C30.7768 7.32045 30.2106 5.11796 28.3959 3.30323C26.5774 1.48463 24.3788 0.922373 21.8972 0.802167C19.7568 0.681961 17.6357 0.701349 15.4992 0.701349C13.3588 0.701349 11.2378 0.681961 9.10127 0.802167C6.61964 0.922373 4.41719 1.48851 2.6025 3.30323C0.78393 5.12184 0.221685 7.32045 0.101481 9.80212C-0.0187227 11.9426 0.000665073 14.0636 0.000665073 16.2002C0.000665073 18.3368 -0.0187227 20.4617 0.101481 22.5983C0.221685 25.0799 0.787807 27.2824 2.6025 29.0972C4.42107 30.9158 6.61964 31.478 9.10127 31.5982C11.2417 31.7184 13.3627 31.699 15.4992 31.699C17.6396 31.699 19.7606 31.7184 21.8972 31.5982C24.3788 31.478 26.5813 30.9119 28.3959 29.0972C30.2145 27.2786 30.7768 25.0799 30.897 22.5983C31.021 20.4617 30.9978 18.3406 30.9978 16.2002ZM15.4953 24.1532C11.0943 24.1532 7.5425 20.6013 7.5425 16.2002C7.5425 11.7991 11.0943 8.2472 15.4953 8.2472C19.8964 8.2472 23.4482 11.7991 23.4482 16.2002C23.4482 20.6013 19.8964 24.1532 15.4953 24.1532ZM23.7739 9.77886C22.7464 9.77886 21.9166 8.94905 21.9166 7.92148C21.9166 6.89391 22.7464 6.0641 23.7739 6.0641C24.8015 6.0641 25.6313 6.89391 25.6313 7.92148C25.6316 8.16548 25.5837 8.40714 25.4905 8.63263C25.3973 8.85811 25.2605 9.06299 25.0879 9.23553C24.9154 9.40806 24.7105 9.54486 24.4851 9.6381C24.2596 9.73133 24.0179 9.77916 23.7739 9.77886Z" fill="white"></path> </svg> 