<?xml version="1.0" encoding="UTF-8"?> <svg xmlns="http://www.w3.org/2000/svg" width="211" height="22" viewBox="0 0 211 22" fill="none"> <g clip-path="url(#clip0)"> <path d="M19.1507 14.9401C18.5299 15.0099 17.8626 15.001 17.4102 14.9765C16.8358 14.9425 15.7478 14.5473 15.7061 15.1186C15.6841 15.3986 16.093 15.7252 16.2757 15.9031C16.5317 16.155 17.5579 16.4045 17.1823 16.8989C16.8281 17.2266 16.2841 16.309 16.0245 16.1156C15.6001 15.7998 15.2644 15.5556 14.8876 15.1538C14.4281 14.6619 12.8888 13.9562 13.646 13.5491C14.4484 13.1772 14.5972 14.1097 16.7001 14.0494C18.1727 14.0076 19.6983 13.8792 20.7852 13.5491C21.3537 13.3778 21.8084 13.1366 22.206 12.9461C22.4406 12.8309 23.181 12.4703 23.3429 12.3772C23.4882 12.29 24.0649 11.9354 24.1965 11.8411C24.3382 11.7384 24.5215 11.693 24.6566 11.5915C25.0215 11.3163 25.3762 10.9271 25.7227 10.5957C26.0818 10.2529 26.4141 9.88284 26.7167 9.4889C26.9572 9.17548 27.2304 8.80534 27.3923 8.49192C27.6512 7.98686 27.7596 7.29673 28.2084 6.96002C28.5084 6.73614 29.4417 6.35824 29.5917 6.2478C30.0345 5.92721 30.3208 5.78274 30.6577 5.35827C30.8845 5.07171 31.1869 4.68904 31.2625 4.3977C31.4625 3.64309 30.9554 2.7267 30.7298 2.36671C30.481 1.96195 29.1768 1.07122 29.0637 1.01093C28.228 0.599594 26.5411 0.576909 25.6167 1.01093C25.4715 1.07958 24.8203 1.47957 24.6917 1.58225C24.4685 1.76195 24.4661 2.40671 24.0185 2.11836C23.5197 1.69151 24.3893 1.5142 24.5846 1.29749C24.8007 1.05869 25.4167 0.576909 25.5423 0.51303C25.759 0.40557 27.025 0.0455797 27.4643 0.0163268C28.0929 -0.0302391 28.6453 0.0336398 29.1328 0.193635C29.7113 0.383481 30.1637 0.607355 30.5161 0.871229C30.6393 0.958391 31.569 1.97329 31.9375 2.22283C32.5143 2.62044 33.6756 2.51536 34.1756 2.93625C34.1964 3.13684 33.9476 3.3243 33.9976 3.57742C34.0291 3.73384 34.2184 3.7619 34.3887 3.93323C34.572 4.1189 34.8976 4.52188 34.9928 4.68187C35.0571 4.78933 35.4893 5.46334 35.5952 5.71468C35.6589 5.85915 36.0512 6.61137 36.1297 6.81793C36.2756 7.21792 36.322 7.76477 36.4494 8.27879C36.6904 9.26742 36.7845 10.3557 36.6976 11.5563C36.6684 11.9772 37.0845 13.0882 36.2744 12.7688C35.5904 12.6405 36.1297 11.8011 36.1297 11.308C36.122 9.68591 36.1416 8.14805 35.5601 6.81793C35.2881 6.46809 35.1428 5.65558 34.8291 5.64722C34.616 5.94572 34.6595 6.90509 34.6744 7.21315C34.7059 7.96178 34.6488 8.86444 34.4256 9.4901C34.3244 9.7689 34.1196 10.0244 34.0363 10.3086C33.9488 10.5838 33.4559 11.5456 33.3946 11.8417C33.3595 12.0178 33.0702 12.7175 32.9339 12.9121C32.7774 13.1264 32.7238 13.8201 32.4339 13.4452C32.2911 12.7897 32.0238 12.5545 31.4399 12.804C30.6673 13.1342 29.9208 13.9807 29.7024 14.8338C29.3709 16.1198 30.3417 17.355 31.0845 17.7197C31.4381 17.8935 32.0518 17.863 32.0798 18.2887C31.6667 18.5113 31.0262 18.4009 30.5554 18.1836C30.3476 18.0893 29.9625 17.7908 29.7357 17.577C29.2036 17.0756 28.9369 16.4648 28.8465 15.6183C28.7363 14.5664 29.1661 13.8177 29.5601 13.339C29.853 12.9754 30.8185 12.3103 31.1566 12.2345C31.6113 12.1306 32.0887 12.3557 32.5786 12.1635C32.8655 12.0482 32.8762 11.5557 33.075 11.0954C33.1726 10.859 33.3292 10.6907 33.3946 10.5241C33.4851 10.2805 33.9476 8.89728 34.0363 8.42207C34.2964 6.96121 34.5196 5.03589 33.7839 4.00547C33.0327 3.96906 32.6387 4.31114 32.3643 4.78873C32.2375 5.01022 32.253 5.3123 32.1143 5.50095C31.4399 6.43466 30.4125 7.39344 30.3042 7.4609C29.7941 7.77194 29.2804 7.93074 28.9881 8.35043C28.872 8.52057 28.8768 8.73609 28.7756 8.91937C28.6976 9.06504 28.1411 9.92889 27.9232 10.2017C27.8036 10.3546 27.7447 10.5283 27.6411 10.6656C27.3887 10.9969 26.9863 11.2942 26.7167 11.5551C26.603 11.6662 26.1822 12.0345 26.0786 12.1253C25.9679 12.2184 25.4655 12.6393 25.2947 12.7676C24.9798 13.0064 24.8739 13.0894 24.409 13.2655C23.8263 13.8954 22.6733 13.4745 22.9882 14.5843C23.0536 14.8153 23.6489 15.321 23.165 15.4392C22.9304 15.4965 22.7233 15.0541 22.5953 14.9401C22.484 14.841 22.0572 14.5544 21.8489 14.5132C21.4245 14.4291 21.1156 14.6798 20.7852 14.7616C20.3852 14.8601 19.7043 14.8774 19.1507 14.9401Z" fill="#231F20"></path> <path d="M36.3355 14.7755C36.37 14.3851 37.1516 14.9421 37.2396 15.1009C37.3212 15.2478 37.4081 15.4089 37.2337 15.5092C37.0617 15.6083 37.0236 15.5875 37.0236 15.5875C36.9736 15.5009 36.5272 15.5337 36.4492 15.4603C36.3057 15.3236 36.3129 15.0155 36.3355 14.7755ZM37.1408 16.4895C37.1408 16.4895 37.2027 16.2949 37.4349 16.3021C37.6712 16.3092 37.5325 16.6089 37.551 16.6543C37.551 16.6543 37.5188 16.8644 37.4301 16.9713C37.3516 17.0656 37.1004 17.1253 37.0152 17.0095C36.92 16.8835 37.123 16.6364 37.1408 16.4895ZM33.0742 14.7254C33.0302 14.806 32.3909 16.0012 32.5778 16.8298C32.6254 17.0429 32.7141 17.9062 33.0022 18.1581C33.1558 18.3074 33.623 18.6196 33.7831 18.7145C33.9296 18.8029 34.1867 18.8757 34.3879 18.9677C34.745 19.1241 35.3504 19.3115 35.9153 19.1438C36.126 19.0817 36.8956 18.7963 36.9801 18.7521C37.1313 18.6727 37.7069 18.056 37.8688 17.6119C38.0396 17.1373 38.4045 16.6417 38.223 15.9039C38.1849 15.7486 37.6992 14.7087 37.3349 14.372C37.2105 14.252 37.1129 14.0806 37.0164 14.015C36.8063 13.8765 36.5676 13.8765 36.4129 13.6591C36.3075 13.5159 35.7736 13.4609 35.4891 13.5493C35.1236 13.6681 34.7635 13.5797 34.4611 13.6926C34.2426 13.7768 34.0063 13.9272 33.8194 14.0496C33.595 14.197 33.22 14.4735 33.0742 14.7254ZM22.5207 1.77708C22.5207 1.2153 23.0796 1.40037 23.0695 1.65708C23.1755 2.01349 22.5344 2.08214 22.5207 1.77708ZM32.2212 13.7296C32.6784 13.8532 32.2796 14.5457 32.0099 14.2645C31.6308 14.1123 31.932 13.569 32.2212 13.7296ZM14.0726 20.6769C14.6214 20.124 15.2511 19.5772 15.8107 19.1097C16.0476 18.9115 16.2166 18.6924 16.4166 18.5384C16.5398 18.4417 16.716 18.4232 16.8428 18.3265C16.9452 18.2435 17.438 17.4972 17.7303 17.2561C18.4428 17.074 18.9237 16.6334 19.6124 16.2233C19.8053 16.1092 20.0321 16.0877 20.1797 16.0101C20.3565 15.917 20.5761 15.588 20.7505 15.7958C20.3344 15.8764 20.4118 16.2262 20.2154 16.5092C20.1118 16.662 19.9053 16.6722 19.7553 16.794C19.4702 17.0226 19.2856 17.3325 19.0797 17.5772C18.3487 18.059 17.6904 18.6906 17.0196 19.2154C16.7874 19.3987 16.5767 19.6291 16.344 19.7867C16.2196 19.8697 15.7874 20.1939 15.6714 20.2858C15.5142 20.4046 15.2803 20.4804 15.1017 20.6064C14.9166 20.736 14.3797 21.0798 14.2839 21.1395C14.1119 21.247 14.0041 21.4637 13.8226 21.5664C13.6898 21.6422 13.3506 22.2004 13.0053 21.9246C12.1696 21.4392 13.6321 21.1151 14.0726 20.6769ZM29.4516 3.36151C29.7986 3.43256 30.2123 3.80568 29.9623 4.1788C29.8974 4.27074 29.7183 4.29999 29.529 4.11672C29.2534 3.85523 28.8986 4.48626 28.6689 4.18656C28.6498 4.11672 28.6302 4.04806 28.6326 3.96747C28.6522 3.58061 28.9558 3.26241 29.4516 3.36151ZM0.326266 10.1649C0.48817 9.93029 0.572693 9.54702 0.784596 9.38224C0.92269 9.27478 1.28102 9.14225 1.56792 9.06046C1.94113 8.95778 2.46792 8.90882 2.95363 8.84912C3.44767 8.78525 3.89886 8.6545 4.26611 8.56316C4.73932 8.44317 5.20063 8.38944 5.1917 7.95542C5.18456 7.60199 4.83694 7.54946 4.65897 7.31543C4.57921 7.20917 4.53814 7.02529 4.44647 6.88978C4.20897 6.53993 3.806 5.89637 3.94766 5.35668C4.01731 5.09639 4.5929 4.40745 4.87325 4.35731C5.39289 4.26656 6.03931 4.71312 6.53931 4.8564C6.94228 4.97281 7.34466 5.02296 7.7143 5.10714C8.77679 5.34952 9.8744 5.52563 11.1613 5.60503C12.6678 5.69936 14.0529 5.91965 15.0327 5.2134C14.4511 4.90774 13.6071 4.92087 12.7202 4.82177C12.1458 4.75909 10.7161 4.67133 10.6988 4.14298C10.6803 3.7221 11.5565 3.42002 11.8345 3.25465C12.0113 3.146 12.119 2.97824 12.2601 2.89764C12.4922 2.76571 12.7381 2.76332 13.0398 2.6481C13.2875 2.55616 13.4839 2.38363 13.7506 2.29109C14.1386 2.15796 14.7047 2.11617 15.2803 1.97289C16.3035 1.71499 17.4428 1.63738 18.6904 1.72096C18.9946 1.74305 19.6898 1.7932 19.8618 1.93528C20.2237 2.24095 19.8565 2.62064 19.9666 3.03973C20.0815 3.47136 21.0535 3.63195 21.7082 3.93045C21.916 4.02836 22.007 4.14597 22.1707 4.25223C22.5975 4.53103 22.8939 4.6767 23.2683 5.06953C23.7148 5.53339 23.8755 5.87846 24.088 6.42352C24.1695 6.6253 24.2725 6.85037 24.3005 7.06589C24.432 8.05452 23.8963 8.89211 23.4844 9.38165C23.0868 9.85387 22.7058 9.84014 21.9939 9.987C21.5999 10.0664 21.2445 10.1583 20.8922 10.2001C18.9529 10.4336 17.194 10.2407 15.4559 10.2736C15.7059 10.3936 15.8547 10.698 16.1315 10.8425C16.6035 11.0897 17.4428 11.1082 18.1577 11.1631C18.91 11.2192 19.669 11.2879 20.2862 11.3052C19.2065 12.2228 16.9791 12.2192 15.0327 12.1237C14.3083 12.0896 13.647 12.0687 13.0053 11.9828C12.319 11.8884 11.8208 11.6365 11.2649 11.5201C10.9589 11.4538 10.6988 11.4664 10.4488 11.378C10.1673 11.2765 9.92321 11.0759 9.66488 10.9864C9.41845 10.8968 9.19226 10.8712 8.99107 10.7721C8.79584 10.673 8.65596 10.51 8.45834 10.4139C8.32025 10.3488 8.16311 10.3428 8.03275 10.2742C7.59109 10.0294 7.04585 9.3715 6.47026 9.38224C6.18098 9.38821 5.95181 9.62224 5.69051 9.70283C5.17861 9.85925 4.66016 9.8485 4.12683 10.0598C3.60243 10.2664 3.09648 10.3034 2.56434 10.4145C1.71316 10.593 0.931023 11.1792 0.0417449 11.021C-0.108254 10.6294 0.18341 10.3703 0.326266 10.1649ZM19.466 17.7975C19.5452 17.9062 19.6856 17.936 19.8219 17.9874C19.8898 17.9254 19.9735 17.8835 20.0636 17.8662C20.4344 17.8125 20.9213 18.1522 20.9148 18.4727C20.91 18.7593 20.5749 18.862 20.4172 19.1127C20.2993 19.3038 20.3672 19.453 20.1696 19.5778C20.0323 19.57 19.8993 19.5274 19.7829 19.454C19.6665 19.3806 19.5706 19.2788 19.5041 19.1581C19.3975 19.1211 19.2856 19.0787 19.1684 19.0739C18.9452 19.0644 18.8523 19.1975 18.644 19.0865C18.3618 18.4972 18.8029 17.8972 19.466 17.7975ZM118.368 13.0442C118.195 13.7332 118.203 14.1123 117.641 14.4621C117.121 14.7779 116.971 14.9809 116.383 15.0776C116.012 15.1403 115.248 15.3188 114.869 15.3564C113.097 15.5313 112.344 15.1558 111.346 15.1069C110.073 15.046 109.55 14.4842 109.08 12.901C108.769 11.8478 108.93 11.2079 108.806 10.1524C108.703 9.31896 108.656 8.19481 108.779 7.33633C108.841 6.90052 108.802 6.43486 109.08 5.8098C109.27 5.38653 109.5 5.03669 109.955 4.87908C111.11 4.47671 111.469 4.43133 112.701 4.49223L113.518 4.48745C114.045 4.47671 114.646 4.52924 115.168 4.56805C115.946 4.62894 116.535 4.76864 117.269 5.054C117.902 5.29758 117.734 5.72921 118.011 6.37516C118.316 7.08201 118.304 7.98288 118.326 8.7548C118.357 10.1649 118.72 11.6425 118.368 13.0442ZM122.788 7.63125C122.29 6.84679 121.755 6.12024 120.982 5.54772C120.744 5.374 119.661 4.71431 119.45 4.61402C119.082 4.44148 117.367 3.74896 116.824 3.62658C115.788 3.39196 111.677 3.51375 111.077 3.57166C110.094 3.66956 108.144 4.46238 107.797 4.61402C107.585 4.70595 106.439 5.37997 106.21 5.54892C106.022 5.68324 105.127 6.48979 105.006 6.64501C104.823 6.87246 104.044 8.04676 103.968 8.29033C103.648 9.27658 103.705 10.8138 103.968 11.6377C104.104 12.0735 104.886 13.1887 105.006 13.3403C105.216 13.5994 105.725 13.9875 106.1 14.2723C106.597 14.6478 107.263 15.1325 107.688 15.3146C107.982 15.437 109.294 16.0036 109.658 16.1391C110.817 16.5695 113.223 16.3397 113.309 16.3444C113.529 16.3606 115.385 16.4555 116.004 16.4119C117.207 16.3313 119.25 15.4221 119.503 15.3146C119.734 15.2179 120.901 14.4585 121.144 14.2723C121.319 14.1379 122.124 13.4221 122.24 13.2848C122.415 13.0795 123.201 11.7571 123.278 11.5279C123.748 10.1022 123.31 8.46406 122.788 7.63125ZM182.431 11.8837C182.259 11.9523 181.93 11.9446 181.741 11.9446C180.501 11.9446 179.257 11.9296 178.017 11.9213C177.683 11.9213 176.913 11.9458 177.148 11.4807C177.297 11.1774 177.334 10.8676 177.474 10.5548C177.687 10.0849 177.927 9.68612 178.056 9.18583C178.156 8.80674 178.328 8.41988 178.483 8.06168C178.615 7.75721 178.71 7.50767 178.771 7.1835C178.851 6.75784 179.098 6.32322 179.278 5.931C179.402 5.66175 179.784 4.48148 180.05 5.0146C180.141 5.19191 180.319 5.68026 180.41 5.86712C180.556 6.16442 180.654 6.50053 180.778 6.81396C181.072 7.57632 181.421 8.31899 181.689 9.09449C181.794 9.39657 181.83 9.73806 181.96 10.0366C182.074 10.2968 182.132 10.5661 182.231 10.8282C182.315 11.0288 182.386 11.2831 182.415 11.4986C182.439 11.652 182.58 11.8258 182.431 11.8837ZM189.914 15.917C189.94 15.1791 189.554 15.72 189.194 15.1475C189.07 14.9457 189.056 14.609 188.926 14.3242C188.74 13.9523 188.223 12.8747 188.156 12.6801C188.004 12.2216 187.63 11.8974 187.444 11.4735C187.29 11.11 186.741 9.87119 186.625 9.60672C186.467 9.25807 185.734 7.70826 185.581 7.24797C185.346 6.50053 184.961 6.06114 184.765 5.49101C184.693 5.27549 184.602 4.9746 184.518 4.76685C184.194 3.94836 183.658 3.80031 182.797 3.84568C181.171 3.93284 178.125 3.69882 176.83 3.73822C176.633 3.74061 175.841 3.77881 176.066 4.32686C176.141 5.0546 178.818 4.24507 178.69 4.77819C178.519 5.52324 178.042 7.27484 177.218 8.66585C177.218 8.66585 176.519 9.87716 176.389 10.4103C176.389 10.4103 175.787 11.6425 175.439 12.3434C175.281 12.5822 175.199 12.8532 175.093 13.1505C175.023 13.3477 174.969 13.5501 174.93 13.7559C174.893 13.9678 174.715 14.0263 174.622 14.2221C174.47 14.5523 174.26 14.7887 174.052 15.1797C173.956 15.3534 173.728 15.4376 173.549 15.5319C172.84 15.5857 172.255 15.7373 172.236 15.9725C172.216 16.637 173.189 16.3898 173.67 16.3641C174.587 16.3044 176.065 16.5379 176.065 16.0292C176.065 15.923 176.118 15.7367 175.974 15.6645C175.816 15.5851 175.718 15.5994 175.406 15.5803C175.322 15.5731 175.082 15.5594 175.157 15.3379C175.231 15.1236 175.298 14.9367 175.372 14.7421C175.525 14.3618 175.79 13.9105 175.937 13.532C176.09 13.1463 176.419 12.8454 176.748 12.8323C177.767 12.8042 178.318 12.8239 179.455 12.8448C180.464 12.8622 181.544 12.6586 182.371 12.7726C182.734 12.8251 182.917 12.861 183.116 13.3571C183.296 13.8048 183.507 14.3296 183.681 14.846C183.737 15.0048 183.737 15.0078 183.786 15.1618C183.994 15.6866 182.236 15.1021 182.521 16.0292C182.7 16.5247 183.326 16.1922 183.778 16.1761C185.4 16.1098 187.59 16.0585 189.303 16.1391C189.892 16.1642 189.914 16.1713 189.914 15.917ZM134.123 14.9702C133.83 14.9922 133.5 15.0119 133.323 15.0119C132.545 15.0119 131.769 15.083 131.004 15.0501C130.406 15.0173 127.644 15.197 127.434 15.0304C126.994 14.5433 127.711 13.7768 127.923 13.3374C128.231 12.6878 128.394 12.0538 128.65 11.3726C128.923 10.646 129.188 9.91603 129.444 9.18285C129.75 8.30108 130.173 7.40021 130.528 6.55247C130.679 6.19308 130.844 5.70473 130.956 5.36206C131.046 5.07072 131.427 4.64387 131.644 5.52086C131.979 6.89574 132.381 8.29451 132.863 9.62761C133.194 10.5171 134.007 13.2084 134.157 13.6466C134.226 13.8544 134.373 14.1433 134.466 14.3791C134.53 14.5355 134.735 14.9236 134.123 14.9702ZM142.764 15.4448C142.321 15.2758 141.299 15.3946 140.76 15.2346C140.347 15.111 140.538 15.1248 140.225 14.6024C140.057 14.3176 139.575 13.2126 139.405 12.8442C139.301 12.6204 138.586 11.3714 138.418 10.981C138.237 10.5404 137.834 9.35896 137.764 9.16912C137.606 8.72495 136.707 7.12738 136.518 6.7847C136.432 6.62948 135.906 5.55369 135.671 4.61581C135.497 3.91015 134.698 3.80866 134.517 3.81225C132.292 3.9006 129.867 3.82598 127.829 3.79016C127.643 3.79016 127.078 3.79374 127.065 4.26477C127.023 5.47608 128.253 4.79431 128.782 4.86296C129.197 4.88864 129.944 4.82356 130.038 5.02057C130.129 5.21878 129.728 6.20621 129.487 6.59247C129.244 6.97932 128.809 7.64438 128.595 8.316C128.385 8.98285 127.344 11.2801 127.209 11.7881C127.073 12.2986 126.537 13.6233 126.511 13.7553L126.056 15.1624C125.784 15.4513 125.068 15.3116 124.694 15.3767C124.434 15.4209 123.876 15.2728 123.579 15.3558C123.078 15.4955 122.894 16.2292 122.729 16.7062C122.541 17.2411 122.365 17.5677 122.434 18.1862C122.421 18.3892 122.798 18.5605 123.028 18.5605C123.301 18.5605 124.144 18.5408 124.109 18.2829C124.101 18.059 124.022 17.6638 124.08 17.2776C124.472 15.9749 124.341 16.3552 125.038 16.4113C125.545 16.4495 127.106 16.3683 127.806 16.3821C130.307 16.4322 132.347 16.2268 135.133 16.1886C136.514 16.1701 138.464 16.1152 139.819 16.2071C140.902 16.283 141.494 15.9492 141.558 16.4674C141.694 16.6973 142.135 17.9516 142.135 18.185C142.115 18.4029 142.685 18.5898 143.134 18.5593C143.817 18.5115 143.795 18.2608 143.763 18.0638C143.556 17.1761 143.152 15.6537 142.764 15.4448ZM171.01 12.104C170.328 11.9523 170.467 12.9553 169.396 13.6675C169.187 13.8042 168.32 14.366 168.031 14.492C167.728 14.6251 166.482 15.046 166.197 15.1564C165.705 15.357 164.894 15.406 164.226 15.5039C163.581 15.5982 161.78 15.603 161.359 15.5039C160.842 15.3863 159.949 15.391 159.62 15.2579C159.155 15.077 158.46 14.5558 158.389 13.9254C158.202 12.4132 158.361 11.2753 158.361 10.0007C158.361 8.66585 158.003 7.05514 158.444 6.05398C158.696 5.46892 159.172 4.70118 159.764 4.45163C161.5 3.70897 166.037 4.83311 166.276 4.3388C166.631 3.43853 164.672 3.57166 163.704 3.57166C162.627 3.57166 161.392 3.36868 160.476 3.46181C159.36 3.57464 158.545 3.67374 157.502 4.06836C157.098 4.22 156.619 4.4576 156.264 4.61402C156.048 4.70954 154.634 5.67608 154.13 6.1495C153.537 6.71247 152.701 7.61274 152.433 8.40018C152.139 9.2724 152.161 11.0049 152.433 11.6383C152.773 12.4228 154.661 14.7051 156.097 15.3146C156.328 15.4149 158.239 16.1659 158.739 16.2579C160.53 16.5749 164.655 16.8047 165.705 16.4328C165.973 16.3361 167.516 15.8662 168.012 15.5045C168.513 15.1451 168.993 14.9236 169.337 14.8525C170.075 14.6997 169.944 14.9845 170.653 15.0949C171.279 15.2036 171.594 13.3869 171.625 12.4413C171.636 12.0998 171.24 12.138 171.01 12.104ZM145.608 8.62824C144.148 9.11658 144.429 11.224 145.743 11.4604C148.257 11.9189 148.238 7.75005 145.608 8.62824ZM96.3457 10.6562C96.2534 10.9816 95.6308 11.8723 94.616 11.9064C94.2427 11.9189 93.6023 11.9738 93.2148 11.9446C92.5636 11.8992 92.6463 11.8956 91.9499 11.8992C91.2279 11.9016 91.0445 11.4186 91.0535 10.1363C91.0535 9.62642 91.0469 8.20854 91.0445 7.70886C91.0267 5.91667 90.6582 4.87073 92.0928 4.87073C92.5928 4.87073 93.2088 4.82655 93.7207 4.88147C94.2517 4.9352 95.6909 4.70177 96.1171 5.29877C96.4856 5.80742 96.8564 6.65157 96.8564 8.13691C96.8588 9.43956 96.5725 9.88671 96.3457 10.6562ZM100.074 5.16087C99.3445 4.62655 99.1629 4.55909 98.2088 4.28388C97.9022 4.19433 97.5558 4.04627 97.2272 3.95612C95.5427 3.5024 92.7725 3.74061 90.8832 3.84508C88.3987 3.98359 85.8761 3.67733 83.9333 3.73762C83.6214 3.74359 82.5036 3.5627 82.3708 4.24806C82.2208 5.81995 85.2285 4.5185 85.6648 5.06057C85.7892 5.21101 85.7762 5.42176 85.7922 5.81936C85.8404 6.90948 85.7369 8.5154 85.7369 10.156C85.7369 11.738 85.8809 13.3977 85.7369 14.6018C85.7101 14.8316 85.5785 15.2884 85.5202 15.3678C84.9345 16.1325 83.1375 15.0131 83.0595 15.9707C83.1375 16.8208 84.516 16.3546 85.2869 16.3343C87.6005 16.2704 90.2862 16.317 92.1892 16.4185C92.5981 16.4418 93.5898 16.5516 93.5094 15.9194C93.3898 15.1648 91.4993 16.2585 91.0463 15.2597C90.8285 14.7827 90.8285 13.6753 91.1029 13.2263C91.4493 12.6574 93.0749 12.8311 93.8904 12.8436C94.4439 12.8544 95.1915 12.9499 95.7505 12.9535C98.4921 12.9684 99.7409 11.9237 99.9641 11.8037C100.133 11.7093 101.027 10.9888 101.171 10.815C101.303 10.6497 101.846 9.75776 101.932 9.55239C102.191 8.94166 102.222 8.12855 102.043 7.46648C101.774 6.47128 100.78 5.68384 100.074 5.16087ZM167.922 5.37041C168.402 5.55489 168.848 5.78652 169.227 6.1483C169.847 6.52262 169.941 8.25869 171.174 7.69572C171.447 7.6014 171.168 5.10117 170.597 4.99848C169.894 4.87968 169.482 5.18176 168.778 4.87968C168.542 4.77819 168.211 4.49044 167.944 4.35134C167.444 4.09224 166.984 4.99848 167.922 5.37041ZM61.4888 3.48629C61.0412 3.38121 60.1412 3.79075 59.452 3.79075C55.4538 3.78717 49.3491 4.03433 45.9408 3.73822C45.6824 3.71613 45.3408 3.66001 45.2104 4.10537C44.9723 5.44265 47.2854 4.16925 47.7509 4.82595C47.8753 5.00803 47.8866 5.33101 47.9074 5.65638C48.0229 7.08619 47.8265 8.46645 47.8562 9.93566C47.8866 11.4622 47.983 12.7529 47.9074 14.2173C47.889 14.603 47.7765 15.1958 47.6902 15.3146C47.2068 16.0059 45.2259 15.1409 45.2259 15.9725C45.0771 16.6525 46.2396 16.3104 46.8425 16.2883C48.9717 16.2 51.699 16.2895 53.8181 16.3337C54.4401 16.3444 55.6978 16.6298 55.6145 15.9534C55.6978 15.0985 53.6621 16.1528 53.1645 15.3146C52.9044 14.8866 52.9984 13.8806 52.9984 13.0072C52.9984 10.1577 52.7907 7.24141 53.0669 5.11549C53.2092 4.66775 55.0937 4.65939 56.2431 4.65939C57.2538 4.65939 58.8984 4.537 59.6752 4.67192C60.0877 4.73939 59.9996 4.94834 60.0496 5.31549C60.1275 5.88204 60.1436 6.845 61.2829 6.75545C61.7609 6.73336 61.5002 5.58951 61.6412 5.21758C61.9829 4.30955 61.9954 3.61345 61.4888 3.48629ZM201.346 14.9702C201.055 14.9922 200.729 15.0119 200.543 15.0119C199.773 15.0119 198.995 15.083 198.228 15.0501C197.635 15.0173 194.867 15.197 194.659 15.0304C194.216 14.5433 194.94 13.7768 195.144 13.3374C195.454 12.6878 195.617 12.0538 195.874 11.3726C196.158 10.6228 196.401 9.93626 196.669 9.18285C196.974 8.30108 197.395 7.40021 197.754 6.55247C197.904 6.19308 198.067 5.70473 198.176 5.36206C198.267 5.07072 198.651 4.64387 198.868 5.52086C199.206 6.89574 199.604 8.29451 200.086 9.62761C200.409 10.5171 201.229 13.2084 201.381 13.6466C201.448 13.8544 201.597 14.1433 201.689 14.3791C201.753 14.5355 201.958 14.9236 201.346 14.9702ZM210.985 18.0638C210.779 17.1767 210.377 15.6537 209.987 15.4448C209.544 15.2758 208.52 15.3946 207.983 15.2346C207.572 15.111 207.764 15.1248 207.447 14.6024C207.28 14.3176 206.801 13.2126 206.632 12.8442C206.524 12.6204 205.807 11.3714 205.647 10.981C205.464 10.5404 205.057 9.35896 204.989 9.16912C204.829 8.72495 203.933 7.12738 203.748 6.7847C203.658 6.62948 203.131 5.55369 202.897 4.61581C202.723 3.91015 201.953 3.62957 201.773 3.63494C199.544 3.7215 197.094 3.82598 195.051 3.79016C194.869 3.79016 194.301 3.79374 194.29 4.26477C194.249 5.47608 195.475 4.79431 196.007 4.86296C196.424 4.88864 197.172 4.82356 197.266 5.02057C197.354 5.21878 196.953 6.20621 196.712 6.59247C196.471 6.97932 196.031 7.64438 195.823 8.316C195.611 8.98285 194.575 11.2801 194.433 11.7881C194.298 12.2986 193.761 13.6233 193.736 13.7553L193.279 15.1624C193.008 15.4513 192.294 15.3116 191.919 15.3767C191.656 15.4209 191.102 15.2728 190.804 15.3558C190.302 15.4955 190.119 16.2292 189.953 16.7062C189.766 17.2411 189.591 17.5665 189.66 18.1862C189.644 18.3892 190.022 18.5605 190.253 18.5605C190.526 18.5605 191.372 18.5408 191.332 18.2829C191.326 18.059 191.249 17.6638 191.304 17.2776C191.7 15.9749 191.57 16.3552 192.262 16.4113C192.769 16.4495 194.332 16.3683 195.032 16.3821C197.531 16.4322 199.571 16.2268 202.359 16.1886C203.74 16.1701 205.69 16.1152 207.047 16.2071C208.128 16.283 208.721 15.9492 208.783 16.4674C208.919 16.6973 209.358 17.9516 209.358 18.185C209.339 18.4029 209.909 18.5898 210.361 18.5593C211.045 18.5115 211.023 18.2608 210.985 18.0638ZM76.7387 13.0442C76.5661 13.7332 76.5816 14.1123 76.0096 14.4621C75.4935 14.7779 75.3423 14.9809 74.7578 15.0776C74.3834 15.1403 73.6185 15.3188 73.2441 15.3564C71.4697 15.5313 70.7144 15.1558 69.7215 15.1069C68.4436 15.046 67.9227 14.4842 67.4519 12.901C67.1394 11.8478 67.3055 11.2079 67.1757 10.1524C67.0709 9.31896 67.0257 8.19481 67.1543 7.33633C67.2138 6.90052 67.1697 6.43486 67.4519 5.8098C67.6441 5.38653 67.8727 5.03669 68.3275 4.87908C69.4852 4.47671 69.8364 4.43133 71.0745 4.49223L71.8905 4.48745C72.4161 4.47671 73.0173 4.52924 73.5417 4.56805C74.3185 4.62894 74.9054 4.76864 75.6393 5.054C76.2768 5.29758 76.1054 5.72921 76.3846 6.37516C76.6881 7.08201 76.6738 7.98288 76.6976 8.7548C76.7286 10.1649 77.0941 11.6425 76.7387 13.0442ZM79.1173 5.54892C78.8816 5.374 77.7988 4.71431 77.5893 4.61402C77.2197 4.44148 75.5024 3.74896 74.9584 3.62658C73.9256 3.39196 69.8162 3.51375 69.2138 3.57166C68.2293 3.66956 66.2823 4.46238 65.9334 4.61402C65.7227 4.70595 64.5763 5.37997 64.3495 5.54892C64.1614 5.68324 63.2662 6.48979 63.143 6.64501C62.9603 6.87246 62.1817 8.04676 62.1037 8.29033C61.7853 9.27658 61.8424 10.8138 62.1037 11.6377C62.24 12.0735 63.0234 13.1887 63.143 13.3403C63.3525 13.5994 63.8614 13.9875 64.2358 14.2723C64.7335 14.6478 65.3983 15.1325 65.8251 15.3146C66.118 15.437 67.4305 16.0036 67.7935 16.1391C68.9537 16.5695 71.3602 16.3397 71.4459 16.3444C71.6691 16.3606 73.5215 16.4555 74.1423 16.4119C75.3429 16.3313 77.3869 15.4221 77.6435 15.3146C77.8715 15.2179 79.0411 14.4585 79.2804 14.2723C79.4548 14.1379 80.2571 13.4221 80.3804 13.2848C80.5512 13.0795 81.3405 11.7571 81.4173 11.5279C81.8905 10.1028 81.4452 8.46466 80.922 7.63244C80.4321 6.84679 79.8935 6.12024 79.1173 5.54892ZM81.0042 3.69822C80.2446 3.90478 80.9071 5.05639 81.3571 4.58417C81.9881 4.33522 81.4851 3.43375 81.0042 3.69822Z" fill="#231F20"></path> </g> <defs> <clipPath id="clip0"> <rect width="211" height="22" fill="white"></rect> </clipPath> </defs> </svg> 