<?xml version="1.0" encoding="UTF-8"?> <svg xmlns="http://www.w3.org/2000/svg" width="30" height="32" viewBox="0 0 30 32" fill="none"> <path d="M14.9995 0.960449C6.71514 0.960449 -0.000488281 7.89993 -0.000488281 16.4604C-0.000488281 25.021 6.71514 31.9604 14.9995 31.9604C23.2839 31.9604 29.9995 25.021 29.9995 16.4604C29.9995 7.89993 23.2839 0.960449 14.9995 0.960449ZM20.7683 18.448C20.7683 18.448 22.0948 19.801 22.4214 20.4291C22.4308 20.442 22.4354 20.4549 22.4386 20.4614C22.5714 20.6923 22.6026 20.8715 22.537 21.0055C22.4276 21.2283 22.0526 21.3381 21.9245 21.3478H19.5808C19.4183 21.3478 19.0776 21.3042 18.6651 21.0103C18.3479 20.7811 18.0354 20.4049 17.7308 20.0384C17.2761 19.4926 16.8823 19.0212 16.4854 19.0212C16.435 19.0211 16.3849 19.0293 16.337 19.0454C16.037 19.1455 15.6526 19.5879 15.6526 20.7665C15.6526 21.1347 15.3714 21.3462 15.1729 21.3462H14.0995C13.7339 21.3462 11.8292 21.2138 10.1417 19.3748C8.07607 17.1224 6.2167 12.6048 6.20107 12.5628C6.08389 12.2706 6.32607 12.114 6.59014 12.114H8.95732C9.27295 12.114 9.37607 12.3126 9.44795 12.4886C9.53232 12.6936 9.8417 13.509 10.3495 14.4261C11.1729 15.9212 11.6776 16.5283 12.0823 16.5283C12.1582 16.5273 12.2327 16.5074 12.2995 16.4701C12.8276 16.1666 12.7292 14.221 12.7058 13.8174C12.7058 13.7415 12.7042 12.9471 12.4339 12.5661C12.2401 12.29 11.9104 12.185 11.7104 12.1463C11.7914 12.0309 11.898 11.9373 12.0214 11.8734C12.3839 11.6861 13.037 11.6587 13.6854 11.6587H14.0464C14.7495 11.6684 14.9308 11.7152 15.1854 11.7814C15.7011 11.9089 15.712 12.2528 15.6667 13.4299C15.6526 13.7641 15.6386 14.1419 15.6386 14.5875C15.6386 14.6844 15.6339 14.7877 15.6339 14.8975C15.6183 15.4965 15.5995 16.1763 16.0089 16.4556C16.0623 16.4902 16.124 16.5087 16.187 16.5089C16.3292 16.5089 16.7573 16.5089 17.9167 14.4535C18.2743 13.792 18.585 13.1045 18.8464 12.3965C18.8698 12.3546 18.9386 12.2254 19.0198 12.1753C19.0798 12.1438 19.1463 12.1277 19.2136 12.1285H21.9964C22.2995 12.1285 22.5073 12.1753 22.5464 12.2964C22.6151 12.4886 22.5339 13.0747 21.2636 14.8523L20.6964 15.6257C19.5448 17.1854 19.5448 17.2645 20.7683 18.448Z" fill="white"></path> </svg> 