<?xml version="1.0" encoding="UTF-8"?> <svg xmlns="http://www.w3.org/2000/svg" width="76" height="12" viewBox="0 0 76 12" fill="none"> <path d="M7.532 1.06H5.964L4.172 7.934C4.018 8.508 4.004 8.984 3.99 8.984H3.962C3.962 8.984 3.92 8.494 3.794 7.934L2.226 1.06H0.364L2.856 11H4.942L6.468 5.12C6.636 4.476 6.72 3.818 6.72 3.818H6.748C6.748 3.818 6.832 4.476 7 5.12L8.526 11H10.612L13.174 1.06H11.312L9.674 7.934C9.548 8.494 9.506 8.984 9.506 8.984H9.478C9.464 8.984 9.45 8.508 9.296 7.934L7.532 1.06ZM14.7815 11H20.9555V9.446H16.5875V6.772H19.9335V5.218H16.5875V2.614H20.7315V1.06H14.7815V11ZM22.8342 11H26.4322C28.2662 11 29.8622 10.104 29.8622 8.116C29.8622 7.108 29.3442 6.1 28.2522 5.778V5.75C29.0082 5.344 29.4562 4.546 29.4562 3.622C29.4562 1.984 28.1822 1.06 26.3902 1.06H22.8342V11ZM24.6402 5.12V2.614H26.3622C27.2022 2.614 27.6222 3.132 27.6222 3.846C27.6222 4.56 27.1742 5.12 26.3902 5.12H24.6402ZM24.6402 9.446V6.576H26.5722C27.4822 6.576 28.0142 7.178 28.0142 8.004C28.0142 8.844 27.4962 9.446 26.5722 9.446H24.6402ZM31.8166 11H33.6226V7.57H35.6526C37.5146 7.57 38.8166 6.226 38.8166 4.294C38.8166 2.362 37.5146 1.06 35.6526 1.06H31.8166V11ZM33.6226 6.002V2.614H35.3446C36.3666 2.614 36.9826 3.272 36.9826 4.294C36.9826 5.33 36.3666 6.002 35.3166 6.002H33.6226ZM40.4163 11H42.2223V7.29H43.9583L45.9323 11H47.9483L45.9043 7.29C45.7083 6.94 45.5683 6.8 45.5683 6.8V6.772C46.6183 6.352 47.2483 5.246 47.2483 4.056C47.2483 2.74 46.6183 1.788 45.6243 1.34C45.1903 1.144 44.7003 1.06 43.6223 1.06H40.4163V11ZM42.2223 5.722V2.614H43.5943C45.0083 2.614 45.4143 3.202 45.4143 4.154C45.4143 5.148 44.8123 5.722 43.8463 5.722H42.2223ZM48.8904 5.96C48.8904 8.886 51.1024 11.168 54.0284 11.168C56.9544 11.168 59.1664 8.886 59.1664 5.96C59.1664 3.118 56.9544 0.891999 54.0284 0.891999C51.1024 0.891999 48.8904 3.118 48.8904 5.96ZM50.7524 5.96C50.7524 4 52.2084 2.544 54.0284 2.544C55.8484 2.544 57.3044 4 57.3044 5.96C57.3044 8.004 55.8484 9.516 54.0284 9.516C52.2084 9.516 50.7524 8.004 50.7524 5.96ZM61.0061 11H62.8121V6.982H66.1021V5.428H62.8121V2.614H66.7181V1.06H61.0061V11ZM70.4883 11H72.2943V6.842L75.5983 1.06H73.5543L72.0143 3.986C71.6923 4.602 71.4123 5.316 71.4123 5.316H71.3843C71.3703 5.33 71.1043 4.602 70.7823 3.986L69.2283 1.06H67.1843L70.4883 6.842V11Z" fill="white"></path> </svg> 